HIERARCHY
ROOT Hips
{
 OFFSET 0.000000 0.000000 0.000000
 CHANNELS 6 Xposition Yposition Zposition Yrotation Xrotation Zrotation
 JOINT Chest
 {
  OFFSET 0.000000 9.588913 -0.003946
  CHANNELS 3 Yrotation Xrotation Zrotation
  JOINT Chest2
  {
   OFFSET 0.000000 9.541882 0.008053
   CHANNELS 3 Yrotation Xrotation Zrotation
   JOINT Chest3
   {
    OFFSET 0.000000 9.501360 0.000000
    CHANNELS 3 Yrotation Xrotation Zrotation
    JOINT Chest4
    {
     OFFSET 0.000000 9.491660 0.000000
     CHANNELS 3 Yrotation Xrotation Zrotation
     JOINT Neck
     {
      OFFSET 0.000000 14.331917 0.000000
      CHANNELS 3 Yrotation Xrotation Zrotation
      JOINT Head
      {
       OFFSET 0.000000 8.884799 0.017034
       CHANNELS 3 Yrotation Xrotation Zrotation
       End Site
       {
        OFFSET 0.000000 16.896195 0.008993
       }
      }
     }
     JOINT RightCollar
     {
      OFFSET -2.923010 9.499495 0.000000
      CHANNELS 3 Yrotation Xrotation Zrotation
      JOINT RightShoulder
      {
       OFFSET -13.795216 0.000000 0.000000
       CHANNELS 3 Yrotation Xrotation Zrotation
       JOINT RightElbow
       {
        OFFSET -30.272209 0.000000 0.000000
        CHANNELS 3 Yrotation Xrotation Zrotation
        JOINT RightWrist
        {
         OFFSET -24.478199 0.000000 0.000000
         CHANNELS 3 Yrotation Xrotation Zrotation
         End Site
         {
          OFFSET -18.090752 0.000000 0.000000
         }
        }
       }
      }
     }
     JOINT LeftCollar
     {
      OFFSET 2.923010 9.499495 0.000000
      CHANNELS 3 Yrotation Xrotation Zrotation
      JOINT LeftShoulder
      {
       OFFSET 13.795216 0.000000 0.000000
       CHANNELS 3 Yrotation Xrotation Zrotation
       JOINT LeftElbow
       {
        OFFSET 30.272209 0.000000 0.000000
        CHANNELS 3 Yrotation Xrotation Zrotation
        JOINT LeftWrist
        {
         OFFSET 24.478199 0.000000 0.000000
         CHANNELS 3 Yrotation Xrotation Zrotation
         End Site
         {
          OFFSET 18.090752 0.000000 0.000000
         }
        }
       }
      }
     }
    }
   }
  }
 }
 JOINT RightHip
 {
  OFFSET -7.826875 0.019532 0.001973
  CHANNELS 3 Yrotation Xrotation Zrotation
  JOINT RightKnee
  {
   OFFSET 0.000000 -40.546152 -0.001885
   CHANNELS 3 Yrotation Xrotation Zrotation
   JOINT RightAnkle
   {
    OFFSET 0.000000 -39.417092 -0.003189
    CHANNELS 3 Yrotation Xrotation Zrotation
    JOINT RightToe
    {
     OFFSET 0.000000 -7.579396 17.243563
     CHANNELS 3 Yrotation Xrotation Zrotation
     End Site
     {
      OFFSET 0.000000 -1.500329 6.694466
     }
    }
   }
  }
 }
 JOINT LeftHip
 {
  OFFSET 7.826875 0.019532 0.001973
  CHANNELS 3 Yrotation Xrotation Zrotation
  JOINT LeftKnee
  {
   OFFSET 0.000000 -40.546152 -0.001885
   CHANNELS 3 Yrotation Xrotation Zrotation
   JOINT LeftAnkle
   {
    OFFSET 0.000000 -39.417092 -0.003189
    CHANNELS 3 Yrotation Xrotation Zrotation
    JOINT LeftToe
    {
     OFFSET 0.000000 -7.579396 17.243563
     CHANNELS 3 Yrotation Xrotation Zrotation
     End Site
     {
      OFFSET 0.000000 -1.500329 6.694466
     }
    }
   }
  }
 }
}
MOTION
Frames: 12
Frame Time: 0.008333
18.004336 78.324428 11.150228 20.668621 -14.955896 -5.481711 1.595693 9.817847 1.464219 0.096496 0.621111 0.087979 0.167193 1.072139 0.152541 1.561878 9.302160 1.441824 2.891959 24.561481 1.947266 4.714632 9.797557 2.794027 -12.113922 4.852160 -12.392543 -25.309377 26.072884 67.312166 41.797708 -3.310955 22.110996 -3.293660 -15.509096 6.622735 -1.366362 2.867533 6.170633 24.164779 4.363301 -59.043104 -24.743731 1.426855 -9.341888 8.008165 7.636619 -13.358342 -11.259222 -19.452360 -2.844562 14.318165 18.527852 -2.815642 12.393150 3.742188 14.946294 -0.003721 0.920856 -0.805065 5.184171 -7.892770 1.338584 4.907831 58.555171 17.914343 23.525577 -32.905356 -18.759048 0.698985 0.280512 -0.748785
17.767884 77.858995 11.284595 20.612647 -14.886663 -5.357541 1.778807 9.732942 1.325750 0.106931 0.612922 0.079409 0.185200 1.058332 0.137851 1.720099 9.238462 1.331838 2.825001 24.547694 1.993418 4.583339 9.770944 2.892470 -12.800641 5.012173 -12.748420 -26.293431 26.281211 66.354876 42.787325 -3.691204 22.527044 -3.705031 -15.319933 6.985907 -0.886060 2.987559 6.743971 24.942186 3.861556 -58.445314 -25.489766 1.146820 -9.198304 8.686227 8.215198 -14.150420 -11.073652 -19.327471 -2.989340 14.305804 17.775352 -2.858804 12.389192 3.966288 15.107459 -0.025193 0.940365 -0.650628 5.097974 -8.381820 1.115383 5.453553 59.575598 18.773020 24.251642 -33.278139 -19.320812 0.696907 0.513010 -0.770320
17.511266 77.407613 11.407337 20.548959 -14.834759 -5.226383 1.970840 9.670405 1.191952 0.117501 0.605660 0.070913 0.203445 1.046067 0.123274 1.880694 9.178536 1.220319 2.752615 24.527216 2.032150 4.444008 9.732217 2.978793 -13.510330 5.183094 -13.095859 -27.325188 26.380028 65.405329 43.764247 -4.043829 22.912654 -4.183856 -15.116974 7.294916 -0.370170 3.098751 7.314743 25.717406 3.253676 -57.901115 -26.201235 0.870855 -8.942281 9.433805 8.868259 -14.944344 -10.839732 -19.178867 -3.129815 14.257428 17.026453 -2.916820 12.384217 4.186070 15.232380 -0.040767 0.959495 -0.506787 4.992142 -8.856772 0.894392 6.010053 60.576723 19.589128 25.050235 -33.641593 -19.843206 0.690211 0.741983 -0.819583
17.230071 76.969401 11.515838 20.486420 -14.782117 -5.111193 2.165169 9.619942 1.079944 0.128530 0.599513 0.062840 0.222481 1.035658 0.109416 2.047878 9.122859 1.113126 2.675593 24.494496 2.061867 4.298362 9.671085 3.049839 -14.232393 5.347849 -13.427262 -28.415266 26.355824 64.457501 44.717127 -4.350674 23.269706 -4.710918 -14.920915 7.561009 0.160880 3.187464 7.864852 26.538579 2.530383 -57.392706 -26.887355 0.624075 -8.614615 10.243211 9.568376 -15.701697 -10.576054 -19.021360 -3.241980 14.175653 16.281106 -2.981875 12.373635 4.404674 15.336372 -0.051872 0.977154 -0.387802 4.841447 -9.351788 0.701195 6.647707 61.571913 20.434628 25.848510 -33.985704 -20.317203 0.702785 0.942691 -0.893640
16.923686 76.543450 11.611244 20.396541 -14.742407 -5.017383 2.392522 9.595593 0.996630 0.141071 0.595751 0.055551 0.244113 1.029230 0.096906 2.234633 9.078561 1.016251 2.590606 24.441796 2.081967 4.140466 9.573180 3.105200 -14.982184 5.536663 -13.717993 -29.530940 26.186281 63.514065 45.665617 -4.644936 23.582143 -5.267003 -14.737123 7.825813 0.665083 3.255516 8.365356 27.453164 1.674642 -56.890887 -27.559209 0.379205 -8.258546 11.091165 10.287582 -16.366285 -10.278817 -18.845220 -3.305497 14.074291 15.541784 -3.051706 12.343463 4.622705 15.426941 -0.063307 0.998702 -0.302171 4.695200 -9.876249 0.543769 7.483136 62.582810 21.445250 26.576432 -34.279236 -20.737403 0.711452 1.066716 -0.997197
16.595831 76.130057 11.701542 20.237655 -14.776670 -4.942960 2.698285 9.661453 0.953722 0.155107 0.595575 0.049289 0.268291 1.028812 0.086170 2.437097 9.054630 0.933368 2.497325 24.362193 2.087832 3.970726 9.425721 3.136624 -15.739512 5.757051 -13.957230 -30.669189 25.898857 62.575551 46.663593 -4.962764 23.842961 -5.826857 -14.554940 8.106626 1.123681 3.291888 8.795726 28.490710 0.700795 -56.376009 -28.249723 0.104704 -7.917100 11.937800 10.995891 -16.887537 -9.936115 -18.598868 -3.307816 13.963180 14.818554 -3.137217 12.309406 4.833796 15.517572 -0.071040 1.023571 -0.253277 4.638104 -10.388609 0.419040 8.526636 63.631967 22.672893 27.269149 -34.441522 -21.121146 0.689538 1.050528 -1.130352
16.244525 75.722217 11.769525 20.104866 -14.772022 -4.906277 2.964944 9.724535 0.944425 0.168912 0.599313 0.044327 0.292027 1.034974 0.077670 2.627507 9.057379 0.867729 2.405031 24.251398 2.069399 3.808189 9.220798 3.123824 -16.418875 5.968186 -14.163861 -31.834511 25.564965 61.666658 47.732298 -5.342046 24.031475 -6.363777 -14.366658 8.386917 1.569692 3.292491 9.153117 29.636967 -0.358220 -55.871203 -28.959558 -0.221017 -7.609877 12.677185 11.635640 -17.222440 -9.689686 -18.390284 -3.226801 13.849700 14.117724 -3.243828 12.282351 5.012484 15.621641 -0.072300 1.070189 -0.245670 4.581005 -10.996610 0.308137 9.728073 64.721714 24.095020 27.938180 -34.548957 -21.499759 0.702818 0.986586 -1.250422
15.878839 75.320128 11.822601 19.962792 -14.790523 -4.886681 3.218933 9.853736 0.958933 0.181378 0.607134 0.041103 0.313397 1.048007 0.072166 2.788321 9.090783 0.825543 2.319760 24.105166 2.021231 3.665057 8.950452 3.055530 -16.957381 6.140901 -14.348700 -32.996295 25.226206 60.819096 48.853461 -5.836970 24.114007 -6.870403 -14.178011 8.654657 2.020280 3.250523 9.441491 30.840519 -1.466662 -55.405441 -29.648343 -0.623014 -7.330282 13.171864 12.100965 -17.310671 -9.513068 -18.166110 -3.084195 13.734663 13.443335 -3.369910 12.260417 5.150180 15.753677 -0.073098 1.142936 -0.287606 4.566182 -11.630511 0.210940 11.080927 65.828079 25.708152 28.554509 -34.535007 -21.832711 0.686142 0.826036 -1.380067
15.504042 74.920821 11.854589 19.829330 -14.801049 -4.874417 3.440797 10.024526 0.977655 0.193452 0.620013 0.040018 0.334021 1.069535 0.070351 2.930732 9.159943 0.813157 2.237521 23.918024 1.946930 3.533425 8.604414 2.939092 -17.371777 6.264109 -14.503419 -34.118454 24.890813 60.035030 50.020935 -6.477618 24.077968 -7.369137 -14.006502 8.912177 2.434120 3.147545 9.663363 32.053640 -2.591758 -54.964814 -30.284375 -1.127220 -7.083142 13.320994 12.296293 -17.101959 -9.419365 -17.964283 -2.897645 13.603151 12.806827 -3.514015 12.251481 5.230181 15.932916 -0.066486 1.245428 -0.382150 4.601347 -12.294828 0.119554 12.509886 66.924785 27.437004 29.107212 -34.485675 -22.082875 0.630654 0.646778 -1.523930
15.124790 74.523375 11.863609 19.697384 -14.799970 -4.868314 3.641738 10.230600 1.000037 0.206687 0.639198 0.041197 0.356543 1.101614 0.072448 3.073172 9.269721 0.832377 2.154905 23.686978 1.850681 3.406356 8.177059 2.782832 -17.705756 6.327685 -14.619500 -35.183031 24.549941 59.289782 51.237031 -7.253464 23.931062 -7.900432 -13.860471 9.170674 2.774060 2.972347 9.830127 33.231075 -3.720963 -54.520508 -30.826195 -1.749278 -6.888949 13.083890 12.176451 -16.606396 -9.387147 -17.798722 -2.684470 13.440913 12.222680 -3.667248 12.297232 5.236430 16.187484 -0.045876 1.367479 -0.529013 4.704164 -12.966124 0.037248 13.843949 67.989852 29.108149 29.661924 -34.501994 -22.252413 0.571108 0.557168 -1.663521
14.749015 74.129060 11.852669 19.550908 -14.823815 -4.856662 3.840080 10.502850 1.023961 0.222030 0.665519 0.044517 0.382563 1.145584 0.078239 3.225172 9.422197 0.880275 2.072020 23.414118 1.733715 3.284072 7.672234 2.588977 -17.973679 6.334494 -14.683400 -36.199545 24.171271 58.558410 52.506694 -8.132366 23.685677 -8.520360 -13.724038 9.435995 3.034490 2.742362 9.963935 34.319697 -4.876125 -54.080274 -31.203564 -2.508522 -6.746471 12.509533 11.730014 -15.878583 -9.385485 -17.644639 -2.472040 13.258119 11.703506 -3.812709 12.389590 5.170653 16.517041 -0.011115 1.497419 -0.715362 4.888332 -13.588716 -0.051613 15.031103 68.994539 30.667518 30.281134 -34.540299 -22.373105 0.487634 0.540535 -1.791292
14.382804 73.738794 11.821589 19.380461 -14.892384 -4.830772 4.053607 10.854771 1.051767 0.239810 0.699496 0.049648 0.412613 1.202255 0.087152 3.387631 9.617736 0.950198 1.988038 23.105605 1.597961 3.165008 7.101348 2.361279 -18.177053 6.284378 -14.673491 -37.186117 23.715094 57.821729 53.837776 -9.076634 23.353876 -9.298590 -13.565207 9.706988 3.213204 2.497806 10.088833 35.279724 -6.083680 -53.676331 -31.374396 -3.452151 -6.631491 11.697109 11.024806 -14.999039 -9.404328 -17.491536 -2.273720 13.086721 11.261451 -3.935636 12.501195 5.040061 16.899596 0.023835 1.626718 -0.919151 5.154795 -14.133895 -0.153326 16.203956 69.913050 32.238197 30.895933 -34.614363 -22.484264 0.389738 0.588394 -1.881284
